HIERARCHY
ROOT Hips
{
	OFFSET	0.00	0.00	0.00
	CHANNELS 6 Xposition Yposition Zposition Zrotation Xrotation Yrotation
	JOINT LeftUpLeg
	{
		OFFSET	 0.126116	-0.014019	-0.065224
		CHANNELS 3 Zrotation Xrotation Yrotation
		JOINT LeftLeg
		{
			OFFSET	 0.000000	 0.000000	 0.569914
			CHANNELS 3 Zrotation Xrotation Yrotation
			JOINT LeftFoot
			{
				OFFSET	 0.000000	 0.000000	 0.544423
				CHANNELS 3 Zrotation Xrotation Yrotation
				JOINT LeftToeBase
				{
					OFFSET	 0.000000	 0.000000	 0.207117
					CHANNELS 3 Zrotation Xrotation Yrotation
					End Site
					{
						OFFSET	 0.000000	 0.000000	 0.207117
					}
				}
			}
		}
	}
	JOINT RightUpLeg
	{
		OFFSET	-0.124023	-0.008373	-0.065224
		CHANNELS 3 Zrotation Xrotation Yrotation
		JOINT RightLeg
		{
			OFFSET	 0.000000	 0.000000	 0.570047
			CHANNELS 3 Zrotation Xrotation Yrotation
			JOINT RightFoot
			{
				OFFSET	 0.000000	 0.000000	 0.544354
				CHANNELS 3 Zrotation Xrotation Yrotation
				JOINT RightToeBase
				{
					OFFSET	 0.000000	 0.000000	 0.207540
					CHANNELS 3 Zrotation Xrotation Yrotation
					End Site
					{
						OFFSET	 0.000000	 0.000000	 0.207540
					}
				}
			}
		}
	}
	JOINT Spine
	{
		OFFSET	 0.000184	-0.007763	 0.117403
		CHANNELS 3 Zrotation Xrotation Yrotation
		JOINT Spine1
		{
			OFFSET	 0.000000	 0.000000	 0.137269
			CHANNELS 3 Zrotation Xrotation Yrotation
			JOINT Spine2
			{
				OFFSET	 0.000000	 0.000000	 0.156879
				CHANNELS 3 Zrotation Xrotation Yrotation
				JOINT LeftShoulder
				{
					OFFSET	 0.080501	-0.002496	 0.160144
					CHANNELS 3 Zrotation Xrotation Yrotation
					JOINT LeftArm
					{
						OFFSET	 0.000000	 0.000000	 0.164363
						CHANNELS 3 Zrotation Xrotation Yrotation
						JOINT LeftForeArm
						{
							OFFSET	 0.000000	 0.000000	 0.364576
							CHANNELS 3 Zrotation Xrotation Yrotation
							JOINT LeftHand
							{
								OFFSET	 0.000000	 0.000000	 0.360812
								CHANNELS 3 Zrotation Xrotation Yrotation
								JOINT LeftHandIndex1
								{
									OFFSET	 0.000000	 0.000000	 0.086006
									CHANNELS 3 Zrotation Xrotation Yrotation
									JOINT LeftHandIndex2
									{
										OFFSET	 0.000000	 0.000000	 0.047236
										CHANNELS 3 Zrotation Xrotation Yrotation
										JOINT LeftHandIndex3
										{
											OFFSET	-0.004284	-0.000551	 0.038166
											CHANNELS 3 Zrotation Xrotation Yrotation
											End Site
											{
												OFFSET	-0.004284	-0.000551	 0.038166
											}
										}
									}
								}
							}
						}
					}
				}
				JOINT Neck
				{
					OFFSET	 0.000000	 0.000000	 0.176489
					CHANNELS 3 Zrotation Xrotation Yrotation
					JOINT Head
					{
						OFFSET	 0.000000	-0.001747	 0.077940
						CHANNELS 3 Zrotation Xrotation Yrotation
						End Site
						{
							OFFSET	 0.000000	-0.001747	 0.077940
						}
					}
				}
				JOINT RightShoulder
				{
					OFFSET	-0.080363	 0.000306	 0.159706
					CHANNELS 3 Zrotation Xrotation Yrotation
					JOINT RightArm
					{
						OFFSET	 0.000000	 0.000000	 0.164196
						CHANNELS 3 Zrotation Xrotation Yrotation
						JOINT RightForeArm
						{
							OFFSET	 0.000000	 0.000000	 0.365611
							CHANNELS 3 Zrotation Xrotation Yrotation
							JOINT RightHand
							{
								OFFSET	 0.000000	 0.000000	 0.360648
								CHANNELS 3 Zrotation Xrotation Yrotation
								JOINT RightHandIndex1
								{
									OFFSET	 0.000000	 0.000000	 0.069977
									CHANNELS 3 Zrotation Xrotation Yrotation
									JOINT RightHandIndex2
									{
										OFFSET	 0.000000	 0.000000	 0.052305
										CHANNELS 3 Zrotation Xrotation Yrotation
										JOINT RightHandIndex3
										{
											OFFSET	 0.009002	-0.000782	 0.042196
											CHANNELS 3 Zrotation Xrotation Yrotation
											End Site
											{
												OFFSET	 0.009002	-0.000782	 0.042196
											}
										}
									}
								}
							}
						}
					}
				}
			}
		}
	}
}
MOTION
Frames:    7
Frame Time: 0.03333334
-0.000646	 0.019753	 1.270868	 0.002592	-0.001171	-0.189371	-4.792728	-1.480163	 178.728800	 1.476554	-11.689720	-0.681996	-6.116702	 71.193980	-0.074894	-2.385833	 28.452760	 0.000004	 4.716183	-2.251426	-178.391000	-1.448419	-12.858660	 0.738602	 6.146221	 71.627370	-0.082672	 2.384658	 28.388730	 0.000004	 4.271537	 2.771130	-0.109522	 2.181395	 3.583622	 0.863244	-6.566252	-4.372769	-1.422088	-91.776260	 78.527430	-180.000000	 66.899290	 43.383140	-56.358860	-7.932597	 3.284694	-8.232447	-29.105260	 3.527997	-4.358036	-2.635965	 4.993658	 6.788941	-5.165319	 0.784187	 3.516649	-5.225038	 0.466231	 0.424329	-0.000002	-3.783157	-0.089647	-6.387646	 4.671185	 0.260783	 89.782070	 78.203900	-180.000000	-63.245880	 41.531210	 53.136200	 7.548942	 5.757799	 13.150140	 28.319570	 2.700974	 8.962874	 6.112037	 4.509576	-0.364401	 4.968462	 1.518543	-9.347576	 5.168945	 0.703820	 2.021906
-0.000643	 0.019890	 1.268815	 0.002776	-0.001507	-0.187095	-4.876785	-2.417413	 178.806000	 1.451000	-13.619610	-0.798638	-6.629896	 72.172180	 0.466093	-2.385833	 28.452760	 0.000004	 4.803164	-3.110445	-178.464400	-1.423254	-14.627770	 0.844502	 6.626957	 72.523960	-0.588374	 2.384658	 28.388730	 0.000004	 4.269272	 2.815727	-0.116437	 2.176529	 3.428345	 0.870928	-6.554103	-4.174255	-1.405401	-91.776190	 78.527470	 180.000000	 66.800700	 43.353280	-56.313000	-7.926071	 3.309162	-8.294457	-29.105290	 3.528012	-4.358026	-2.635965	 4.993658	 6.788941	-5.165319	 0.784187	 3.516649	-5.225038	 0.466231	 0.424329	-0.000002	-3.783157	-0.089647	-6.385076	 4.765816	 0.265966	 89.782100	 78.203900	 180.000000	-63.044920	 41.393200	 53.216540	 7.335768	 5.743518	 13.261940	 28.211320	 2.601523	 8.890932	 6.112037	 4.509576	-0.364401	 4.968462	 1.518543	-9.347576	 5.168945	 0.703820	 2.021906
-0.000639	 0.020016	 1.266925	 0.002922	-0.001801	-0.184701	-4.951283	-3.178214	 178.868000	 1.427083	-15.187040	-0.894775	-7.092221	 72.965890	 0.951079	-2.385833	 28.452760	 0.000004	 4.880328	-3.820275	-178.525300	-1.399725	-16.090210	 0.933334	 7.065273	 73.264370	-1.047481	 2.384658	 28.388730	 0.000004	 4.259250	 2.856812	-0.122334	 2.168136	 3.285126	 0.876364	-6.530890	-3.992033	-1.387537	-91.776180	 78.527470	 180.000000	 66.704030	 43.327530	-56.262420	-7.918755	 3.332741	-8.354025	-29.105260	 3.528001	-4.358030	-2.635965	 4.993658	 6.788941	-5.165319	 0.784187	 3.516649	-5.225038	 0.466231	 0.424329	-0.000002	-3.783157	-0.089647	-6.370829	 4.854528	 0.270317	 89.782130	 78.203870	 180.000000	-62.825600	 41.255320	 53.381040	 7.131955	 5.685968	 13.260510	 28.128050	 2.507002	 8.827266	 6.112037	 4.509576	-0.364401	 4.968462	 1.518543	-9.347576	 5.168945	 0.703820	 2.021906
-0.000633	 0.020156	 1.264828	 0.003077	-0.002097	-0.181613	-5.031856	-3.942054	 178.929600	 1.400108	-16.761550	-0.992798	-7.604324	 73.762350	 1.485950	-2.385833	 28.452760	 0.000004	 4.963568	-4.541072	-178.587600	-1.373202	-17.575650	 1.024916	 7.554056	 74.015650	-1.557525	 2.384658	 28.388730	 0.000004	 4.239107	 2.902336	-0.128406	 2.154396	 3.126191	 0.880455	-6.491518	-3.790791	-1.364994	-91.776160	 78.527430	 180.000000	 66.589880	 43.300390	-56.195360	-7.909015	 3.360572	-8.424466	-29.105290	 3.528008	-4.358037	-2.635965	 4.993658	 6.788941	-5.165319	 0.784187	 3.516649	-5.225038	 0.466231	 0.424329	-0.000002	-3.783157	-0.089647	-6.341524	 4.954581	 0.274624	 89.782140	 78.203900	 180.000000	-62.639800	 40.956600	 53.757490	 6.803203	 5.536213	 13.127390	 28.172800	 2.272502	 8.685740	 6.112037	 4.509576	-0.364401	 4.968462	 1.518543	-9.347576	 5.168945	 0.703820	 2.021906
-0.000627	 0.020284	 1.262931	 0.003191	-0.002345	-0.178511	-5.103317	-4.578334	 178.980200	 1.375278	-18.073770	-1.075734	-8.072706	 74.425290	 1.973387	-2.385833	 28.452760	 0.000004	 5.037203	-5.146129	-178.640400	-1.348817	-18.822960	 1.102982	 8.002994	 74.645720	-2.024493	 2.384658	 28.388730	 0.000004	 4.212617	 2.943393	-0.133351	 2.137929	 2.982682	 0.882312	-6.443460	-3.609896	-1.342199	-91.776180	 78.527470	 180.000000	 66.480220	 43.276500	-56.124500	-7.898910	 3.386991	-8.491283	-29.105260	 3.528020	-4.358037	-2.635965	 4.993658	 6.788941	-5.165319	 0.784187	 3.516649	-5.225038	 0.466231	 0.424329	-0.000002	-3.783157	-0.089647	-6.302587	 5.046417	 0.277999	 89.782090	 78.203890	 180.000000	-62.452930	 40.622910	 54.237640	 6.477943	 5.340456	 12.879560	 28.258800	 2.014992	 8.532605	 6.112037	 4.509576	-0.364401	 4.968462	 1.518543	-9.347576	 5.168945	 0.703820	 2.021906
-0.000623	 0.020412	 1.261042	 0.003459	-0.002236	-0.174584	-5.173818	-5.172519	 179.026300	 1.350103	-19.299010	-1.154302	-8.549461	 75.043500	 2.468208	-2.385833	 28.452760	 0.000004	 5.109587	-5.714988	-178.690700	-1.324083	-19.995120	 1.177410	 8.461948	 75.237040	-2.500316	 2.384658	 28.388730	 0.000004	 4.178114	 2.983893	-0.138240	 2.117500	 2.839635	 0.882721	-6.383550	-3.430404	-1.317368	-91.776250	 78.527430	-180.000000	 66.364720	 43.253700	-56.047200	-7.888001	 3.411396	-8.553157	-29.105250	 3.528027	-4.358023	-2.635965	 4.993658	 6.788941	-5.165319	 0.784187	 3.516649	-5.225038	 0.466231	 0.424329	-0.000002	-3.783157	-0.089647	-6.251776	 5.139324	 0.280838	 89.782120	 78.203920	 180.000000	-62.201920	 40.259060	 54.821550	 6.124293	 5.099232	 12.531660	 28.350480	 1.745423	 8.373088	 6.112037	 4.509576	-0.364401	 4.968462	 1.518543	-9.347576	 5.168945	 0.703820	 2.021906
-0.000619	 0.020543	 1.259149	 0.003750	-0.001789	-0.170019	-5.243934	-5.734941	 179.068800	 1.324447	-20.458550	-1.229749	-9.039968	 75.627690	 2.975897	-2.385833	 28.452760	 0.000004	 5.181198	-6.255682	-178.739100	-1.298899	-21.108640	 1.249149	 8.934977	 75.797910	-2.989470	 2.384658	 28.388730	 0.000004	 4.135389	 3.023988	-0.142850	 2.093045	 2.696593	 0.881242	-6.311324	-3.251767	-1.290299	-91.776200	 78.527470	-180.000000	 66.242580	 43.231150	-55.962090	-7.876331	 3.434163	-8.610765	-29.105270	 3.528030	-4.358030	-2.635965	 4.993658	 6.788941	-5.165319	 0.784187	 3.516649	-5.225038	 0.466231	 0.424329	-0.000002	-3.783157	-0.089647	-6.188674	 5.233599	 0.283104	 89.782220	 78.203890	 179.999900	-61.862580	 39.842160	 55.476730	 5.687383	 4.832428	 12.157070	 28.455740	 1.449119	 8.199451	 6.112037	 4.509576	-0.364401	 4.968462	 1.518543	-9.347576	 5.168945	 0.703820	 2.021906
